{"asset":{"version":"2.0","generator":"THREE.GLTFExporter"},"scenes":[{"nodes":[0],"name":"AuxScene"}],"scene":0,"nodes":[{"mesh":0}],"bufferViews":[{"buffer":0,"byteOffset":0,"byteLength":155520,"target":34962,"byteStride":12},{"buffer":0,"byteOffset":155520,"byteLength":155520,"target":34962,"byteStride":12}],"buffers":[{"byteLength":311040,"uri":"data:application/octet-stream;base64,"}],"accessors":[{"bufferView":0,"componentType":5126,"count":12960,"max":[101.80000305175781,68,-0.42904698848724365],"min":[-101.9000015258789,-19.800003051757812,-307.32904052734375],"type":"VEC3"},{"bufferView":1,"componentType":5126,"count":12960,"max":[0.9635137915611267,1,0.5547148585319519],"min":[-0.654108464717865,0.1606142222881317,-0.34967997670173645],"type":"VEC3"}],"materials":[{"pbrMetallicRoughness":{"baseColorFactor":[0.5019607843137255,0.5019607843137255,0.5019607843137255,1],"metallicFactor":0,"roughnessFactor":1}}],"meshes":[{"primitives":[{"mode":4,"attributes":{"POSITION":0,"NORMAL":1},"material":0}]}]}